<svg height="64" preserveAspectRatio="none" viewBox="0 0 64 64" width="64" xmlns="http://www.w3.org/2000/svg" xmlns:xlink="http://www.w3.org/1999/xlink"><linearGradient id="a" gradientUnits="userSpaceOnUse" x1="34.831055" x2="27.164116" y1="50.338867" y2=".672433"><stop offset="0" stop-color="#ff0900"/><stop offset="1" stop-color="#5f0000"/></linearGradient><path clip-rule="evenodd" d="m59.8330078 48c0 6.6269531-5.3730469 12-12 12h-31.6660156c-6.6279297 0-12-5.3730469-12-12v-32c0-6.6279297 5.3720703-12 12-12h31.6660156c6.6269531 0 12 5.3720703 12 12z" fill="#fff" fill-rule="evenodd"/><path d="m47.8330078 62h-31.6660156c-7.7197266 0-14-6.2802734-14-14v-32c0-7.7197266 6.2802734-14 14-14h31.6660156c7.7197266 0 14 6.2802734 14 14v32c0 7.7197266-6.2802734 14-14 14zm-31.6660156-56c-5.5141602 0-10 4.4858398-10 10v32c0 5.5136719 4.4858398 10 10 10h31.6660156c5.5136719 0 10-4.4863281 10-10v-32c0-5.5141602-4.4863281-10-10-10z"/><circle clip-rule="evenodd" cx="32" cy="32" fill="url(#a)" fill-rule="evenodd" r="7.416016"/></svg>