<svg height="64" preserveAspectRatio="none" viewBox="0 0 64 64" width="64" xmlns="http://www.w3.org/2000/svg" xmlns:xlink="http://www.w3.org/1999/xlink"><linearGradient id="a"><stop offset="0" stop-color="#919191"/><stop offset="1"/></linearGradient><linearGradient id="b" gradientUnits="userSpaceOnUse" x1="27.817383" x2="21.150909" xlink:href="#a" y1="45.84375" y2="17.510742"/><linearGradient id="c" gradientUnits="userSpaceOnUse" x1="47.736328" x2="41.069225" xlink:href="#a" y1="67.262695" y2="38.92701"/><path clip-rule="evenodd" d="m59.8330078 48c0 6.6269531-5.3730469 12-12 12h-31.6660156c-6.6279297 0-12-5.3730469-12-12v-32c0-6.6279297 5.3720703-12 12-12h31.6660156c6.6269531 0 12 5.3720703 12 12z" fill="#fff" fill-rule="evenodd"/><path d="m47.8330078 62h-31.6660156c-7.7197266 0-14-6.2802734-14-14v-32c0-7.7197266 6.2802734-14 14-14h31.6660156c7.7197266 0 14 6.2802734 14 14v32c0 7.7197266-6.2802734 14-14 14zm-31.6660156-56c-5.5141602 0-10 4.4858398-10 10v32c0 5.5136719 4.4858398 10 10 10h31.6660156c5.5136719 0 10-4.4863281 10-10v-32c0-5.5141602-4.4863281-10-10-10z"/><g clip-rule="evenodd" fill-rule="evenodd"><circle cx="22.040527" cy="21.291992" fill="url(#b)" r="5.166504"/><circle cx="41.958984" cy="42.708984" fill="url(#c)" r="5.166992"/></g></svg>