<svg height="64" preserveAspectRatio="none" viewBox="0 0 64 64" width="64" xmlns="http://www.w3.org/2000/svg" xmlns:xlink="http://www.w3.org/1999/xlink"><linearGradient id="a"><stop offset="0" stop-color="#919191"/><stop offset="1"/></linearGradient><linearGradient id="b" gradientUnits="userSpaceOnUse" x1="25.943359" x2="19.276886" xlink:href="#a" y1="44.71875" y2="16.385742"/><linearGradient id="c" gradientUnits="userSpaceOnUse" x1="49.608398" x2="42.942555" xlink:href="#a" y1="44.716797" y2="16.386465"/><linearGradient id="d" gradientUnits="userSpaceOnUse" x1="25.943848" x2="19.276745" xlink:href="#a" y1="68.387695" y2="40.05201"/><linearGradient id="e" gradientUnits="userSpaceOnUse" x1="49.610352" x2="42.943878" xlink:href="#a" y1="68.385742" y2="40.052734"/><path clip-rule="evenodd" d="m59.8330078 48c0 6.6269531-5.3730469 12-12 12h-31.6660156c-6.6279297 0-12-5.3730469-12-12v-32c0-6.6279297 5.3720703-12 12-12h31.6660156c6.6269531 0 12 5.3720703 12 12z" fill="#fff" fill-rule="evenodd"/><path d="m47.8330078 62h-31.6660156c-7.7197266 0-14-6.2802734-14-14v-32c0-7.7197266 6.2802734-14 14-14h31.6660156c7.7197266 0 14 6.2802734 14 14v32c0 7.7197266-6.2802734 14-14 14zm-31.6660156-56c-5.5141602 0-10 4.4858398-10 10v32c0 5.5136719 4.4858398 10 10 10h31.6660156c5.5136719 0 10-4.4863281 10-10v-32c0-5.5141602-4.4863281-10-10-10z"/><g clip-rule="evenodd" fill-rule="evenodd"><circle cx="20.166504" cy="20.166992" fill="url(#b)" r="5.166504"/><circle cx="43.83252" cy="20.166992" fill="url(#c)" r="5.166504"/><circle cx="20.166504" cy="43.833984" fill="url(#d)" r="5.166504"/><circle cx="43.833496" cy="43.833984" fill="url(#e)" r="5.166504"/></g></svg>