<?xml version="1.0" encoding="UTF-8"?>
<svg width="24px" height="24px" viewBox="0 0 24 24" version="1.1" xmlns="http://www.w3.org/2000/svg">
    <g stroke="none" stroke-width="1" fill="none" fill-rule="evenodd">
        <path d="M19.27,5.33C17.94,4.71,16.5,4.26,15,4C14.83,4.3,14.63,4.7,14.47,5.07C12.87,4.84,11.27,4.84,9.67,5.07C9.5,4.69,9.29,4.3,9.12,4C7.62,4.26,6.17,4.71,4.84,5.33C1.55,9.94,0.65,14.28,1.11,18.57C3.29,19.93,5.5,20.78,7.71,21.34C8.14,20.68,8.53,20,8.86,19.29C8.16,19,7.5,18.64,6.89,18.21C7.03,18.14,7.17,18.07,7.31,18C10.59,19.49,14.11,19.49,17.36,18C17.5,18.07,17.64,18.14,17.78,18.21C17.17,18.64,16.51,19,15.81,19.29C16.14,20,16.53,20.68,16.96,21.34C19.17,20.78,21.38,19.93,23.56,18.57C24.08,13.81,22.69,9.5,19.27,5.33ZM8.02,15.33C6.83,15.33,5.86,14.35,5.86,13.14C5.86,11.93,6.83,10.95,8.02,10.95C9.2,10.95,10.17,11.93,10.17,13.14C10.17,14.35,9.2,15.33,8.02,15.33ZM15.98,15.33C14.79,15.33,13.82,14.35,13.82,13.14C13.82,11.93,14.79,10.95,15.98,10.95C17.16,10.95,18.14,11.93,18.14,13.14C18.14,14.35,17.16,15.33,15.98,15.33Z" fill="#FFFFFF"/>
    </g>
</svg> 